<svg id="Layer_1" data-name="Layer 1" xmlns="http://www.w3.org/2000/svg" xmlns:xlink="http://www.w3.org/1999/xlink" viewBox="0 0 180 180"><defs><style>.cls-1{opacity:0.6;}.cls-2{fill:url(#linear-gradient);}.cls-3{fill:url(#radial-gradient);}.cls-4{fill:url(#linear-gradient-2);}</style><linearGradient id="linear-gradient" x1="90" y1="3.94" x2="90" y2="183.94" gradientUnits="userSpaceOnUse"><stop offset="0" stop-color="#fff"/><stop offset="0.13" stop-color="#fbfbfb"/><stop offset="0.25" stop-color="#efefef"/><stop offset="0.38" stop-color="#dbdbdb"/><stop offset="0.5" stop-color="#bfbfbf"/><stop offset="0.63" stop-color="#9a9a9a"/><stop offset="0.75" stop-color="#6e6e6e"/><stop offset="0.88" stop-color="#3a3a3a"/><stop offset="1"/></linearGradient><radialGradient id="radial-gradient" cx="519.5" cy="313" r="90" gradientUnits="userSpaceOnUse"><stop offset="0" stop-color="#cce0f4"/><stop offset="0.04" stop-color="#c3dcf2"/><stop offset="0.09" stop-color="#a9d2ee"/><stop offset="0.17" stop-color="#80c2e7"/><stop offset="0.26" stop-color="#47acde"/><stop offset="0.31" stop-color="#1e9cd7"/><stop offset="0.56" stop-color="#0379c0"/><stop offset="0.69" stop-color="#0075be"/><stop offset="0.8" stop-color="#0981c6"/><stop offset="0.92" stop-color="#01619e"/><stop offset="0.99" stop-color="#005b97"/></radialGradient><linearGradient id="linear-gradient-2" x1="519.51" y1="246.5" x2="519.5" y2="377.01" gradientUnits="userSpaceOnUse"><stop offset="0.27" stop-color="#cce0f4"/><stop offset="0.32" stop-color="#c3dcf2"/><stop offset="0.39" stop-color="#a9d2ee"/><stop offset="0.48" stop-color="#80c2e7"/><stop offset="0.59" stop-color="#47acde"/><stop offset="0.66" stop-color="#1e9cd7"/><stop offset="1" stop-color="#0075be"/></linearGradient></defs><g class="cls-1"><circle class="cls-2" cx="90" cy="90" r="90"/><path class="cls-3" d="M519.5,223.25A89.75,89.75,0,1,1,429.75,313a89.85,89.85,0,0,1,89.75-89.75m0-.25a90,90,0,1,0,90,90,90,90,0,0,0-90-90Z" transform="translate(-429.5 -223)"/></g><path class="cls-4" d="M517.23,238.62h5.16a3,3,0,0,1,3,3v32.56a.4.4,0,0,0,.77.16l2-4.61a14.86,14.86,0,0,1,3.17-4.67l.83-.84a12.27,12.27,0,0,1,8.68-3.59h.4a7.51,7.51,0,0,1,4.16,1.26l2.07.93a30.42,30.42,0,0,1,10.77,8.05c.32.37.61.74.86,1.07l.39.51a12,12,0,0,1,1.37,2.35l3.69,8.34,8.16,17.4,5.94,14.42a43.12,43.12,0,0,1,1.76,5.17l2.81,10.28a23.45,23.45,0,0,1,.55,2.62l.71,4.84a28.66,28.66,0,0,1,.31,3.58l.37,14.18a5.33,5.33,0,0,1-.19,1.54h0a9.41,9.41,0,0,1-1.4,3h0l-.1.1a4.89,4.89,0,0,1-5.07,1.19h0l-8.84-7.08a26,26,0,0,0-9.1-4.69l-20.23-5.77a15.39,15.39,0,0,1-5.93-3.25l0,0a5.31,5.31,0,0,1-1.54-2.36c0-.17-.1-.34-.16-.52-.45-1.42-1-2.81-1.55-4.17l-.54-1.24a20.18,20.18,0,0,1-1.61-6.67l-2.45-36.06a6.84,6.84,0,0,0-4.88-6.08l-.82-.09c-1.82-.19-6.39,1.59-7.89,3.62a10.25,10.25,0,0,0-1.92,6.27l.28,20a29.52,29.52,0,0,1-.14,3.26l-.66,6.86a37.63,37.63,0,0,1-1.75,8.26l-1.31,3.93h0A8,8,0,0,1,502,341l-17.63,5.67a16.79,16.79,0,0,0-3.19,1.4L476,351a19.9,19.9,0,0,0-4.2,3.21L468,358a12.32,12.32,0,0,1-4.83,3l-1.11.37-2.71-.05a10,10,0,0,1-3.16-.57h0a3,3,0,0,1-2-2.67l-.25-5.93a39.69,39.69,0,0,1,.13-5.34l1-10.66a48.08,48.08,0,0,1,2.43-11.3l5.59-16.2,10-25.14a26.07,26.07,0,0,1,1.16-2.52l2.22-4.25a24.2,24.2,0,0,1,6.37-7.74l2.46-2,1.84-1.46a16,16,0,0,1,5.93-3c2-.53,4.33-1.1,6.3-1.52a9.88,9.88,0,0,1,5.2.3h0a6.24,6.24,0,0,1,2.49,1.55l.47.46a14,14,0,0,1,3.37,5.48l.25.75.68,3.47a.56.56,0,0,0,0,.12l.71,1.61c1.45.51,1.21-.86,1.2-1.6l0-31.13A3.5,3.5,0,0,1,517.23,238.62Z" transform="translate(-429.5 -223)"/></svg>