<?xml version="1.0" encoding="utf-8"?>
<!-- Generator: Adobe Illustrator 24.1.0, SVG Export Plug-In . SVG Version: 6.00 Build 0)  -->
<svg version="1.1" id="Layer_1" xmlns="http://www.w3.org/2000/svg" xmlns:xlink="http://www.w3.org/1999/xlink" x="0px" y="0px"
	 viewBox="0 0 466.5 465.88" style="enable-background:new 0 0 466.5 190.88;" xml:space="preserve">
<style type="text/css">
	.st0{opacity:0.6;}
	.st1{fill:url(#SVGID_1_);}
	.st2{fill:url(#SVGID_2_);}
	.st3{fill:url(#SVGID_3_);}
	.st4{fill:#444444;}
	.st5{font-family:'LaoSangamMN';}
	.st6{font-size:80.0169px;}
</style>
<g>
	<g>
		<g class="st0">
			<linearGradient id="SVGID_1_" gradientUnits="userSpaceOnUse" x1="90" y1="3.9352" x2="90" y2="183.9352">
				<stop  offset="0" style="stop-color:#FFFFFF"/>
				<stop  offset="0.1255" style="stop-color:#FBFBFB"/>
				<stop  offset="0.251" style="stop-color:#EFEFEF"/>
				<stop  offset="0.3766" style="stop-color:#DBDBDB"/>
				<stop  offset="0.5024" style="stop-color:#BFBFBF"/>
				<stop  offset="0.6284" style="stop-color:#9A9A9A"/>
				<stop  offset="0.7546" style="stop-color:#6E6E6E"/>
				<stop  offset="0.8784" style="stop-color:#3A3A3A"/>
				<stop  offset="1" style="stop-color:#000000"/>
			</linearGradient>
			<circle class="st1" cx="90" cy="90" r="90"/>
			<radialGradient id="SVGID_2_" cx="90" cy="90" r="90" gradientUnits="userSpaceOnUse">
				<stop  offset="0" style="stop-color:#CCE0F4"/>
				<stop  offset="0.0355" style="stop-color:#C3DCF2"/>
				<stop  offset="0.0944" style="stop-color:#A9D2EE"/>
				<stop  offset="0.1697" style="stop-color:#80C2E7"/>
				<stop  offset="0.2573" style="stop-color:#47ACDE"/>
				<stop  offset="0.3141" style="stop-color:#1E9CD7"/>
				<stop  offset="0.5588" style="stop-color:#0379C0"/>
				<stop  offset="0.6905" style="stop-color:#0075BE"/>
				<stop  offset="0.8" style="stop-color:#0981C6"/>
				<stop  offset="0.9234" style="stop-color:#01619E"/>
				<stop  offset="0.9944" style="stop-color:#005B97"/>
			</radialGradient>
			<path class="st2" d="M90,0.25c49.49,0,89.75,40.26,89.75,89.75S139.49,179.75,90,179.75S0.25,139.49,0.25,90S40.51,0.25,90,0.25
				 M90,0C40.29,0,0,40.29,0,90s40.29,90,90,90s90-40.29,90-90S139.71,0,90,0L90,0z"/>
		</g>
		<linearGradient id="SVGID_3_" gradientUnits="userSpaceOnUse" x1="90.0092" y1="23.5006" x2="89.9979" y2="154.013">
			<stop  offset="0.2737" style="stop-color:#CCE0F4"/>
			<stop  offset="0.3169" style="stop-color:#C3DCF2"/>
			<stop  offset="0.3889" style="stop-color:#A9D2EE"/>
			<stop  offset="0.4807" style="stop-color:#80C2E7"/>
			<stop  offset="0.5876" style="stop-color:#47ACDE"/>
			<stop  offset="0.6569" style="stop-color:#1E9CD7"/>
			<stop  offset="1" style="stop-color:#0075BE"/>
		</linearGradient>
		<path class="st3" d="M87.73,15.62h5.16c1.64,0,2.97,1.33,2.97,2.97v32.56c0,0.44,0.6,0.56,0.77,0.16l1.97-4.61
			c0.75-1.75,1.82-3.33,3.17-4.68l0.83-0.83c2.3-2.3,5.42-3.6,8.68-3.6h0.4c1.48,0,2.93,0.44,4.16,1.26l2.07,0.94
			c4.13,1.87,7.85,4.58,10.77,8.04c0.32,0.38,0.61,0.74,0.86,1.08l0.39,0.51c0.55,0.73,1.01,1.52,1.38,2.35l3.68,8.34l8.17,17.41
			l5.94,14.42c0.69,1.68,1.28,3.41,1.76,5.17l2.81,10.29c0.23,0.86,0.42,1.73,0.55,2.61l0.72,4.84c0.18,1.19,0.28,2.38,0.31,3.58
			l0.36,14.18c0.01,0.52-0.05,1.04-0.19,1.54v0c-0.29,1.06-0.76,2.07-1.4,2.97v0l-0.1,0.11c-1.32,1.34-3.29,1.8-5.07,1.19l0,0
			l-8.85-7.08c-2.69-2.15-5.78-3.75-9.1-4.69l-20.23-5.77c-2.19-0.63-4.22-1.73-5.93-3.24l-0.04-0.03
			c-0.72-0.64-1.25-1.45-1.54-2.36c-0.05-0.17-0.11-0.35-0.17-0.53c-0.45-1.41-0.97-2.81-1.55-4.17l-0.53-1.24
			c-0.91-2.12-1.46-4.38-1.62-6.68l-2.45-36.05c-0.19-2.85-2.14-5.27-4.87-6.08l-0.82-0.09c-1.82-0.19-6.39,1.59-7.89,3.62
			c-1.33,1.8-1.96,4.03-1.93,6.27l0.28,19.96c0.02,1.09-0.03,2.17-0.13,3.25l-0.67,6.86c-0.27,2.81-0.86,5.58-1.75,8.26l-1.31,3.93
			v0c-0.73,2.57-2.7,4.61-5.25,5.43l-17.63,5.67c-1.11,0.36-2.18,0.83-3.19,1.41l-5.21,2.98c-1.54,0.88-2.95,1.96-4.2,3.21
			l-3.81,3.81c-1.36,1.36-3.01,2.38-4.83,2.99l-1.11,0.37l-2.71-0.05c-1.08-0.02-2.15-0.21-3.17-0.58h0
			c-1.14-0.4-1.91-1.46-1.96-2.66l-0.25-5.93c-0.08-1.78-0.03-3.57,0.13-5.34l0.97-10.66c0.35-3.85,1.17-7.65,2.43-11.3l5.59-16.2
			l10.01-25.14c0.34-0.86,0.73-1.71,1.16-2.53l2.22-4.25c1.57-3,3.74-5.63,6.38-7.74l2.46-1.97l1.83-1.46
			c1.75-1.39,3.77-2.4,5.93-2.97c2.03-0.53,4.33-1.09,6.3-1.52c1.73-0.37,3.52-0.26,5.2,0.3l0,0c0.94,0.31,1.8,0.84,2.5,1.55
			c0.15,0.15,0.3,0.31,0.46,0.47c1.53,1.54,2.69,3.41,3.38,5.47l0.25,0.75l0.68,3.47c0.01,0.04,0.02,0.08,0.04,0.12l0.71,1.61
			c1.45,0.51,1.21-0.86,1.21-1.6l-0.04-31.13C84.23,17.19,85.79,15.62,87.73,15.62z"/>
	</g>
	<text transform="matrix(1 0 0 1 176.0088 179.3757)" class="st4 st5 st6">Alveolus</text>
</g>
</svg>
